0
SECTION
2
HEADER
0
ENDSEC
0
SECTION
2
ENTITIES
0
LINE
8
WALLS
62
1
10
0.0
20
0.0
11
300.0
21
0.0
0
LINE
8
WALLS
62
1
10
300.0
20
0.0
11
300.0
21
200.0
0
LINE
8
WALLS
62
1
10
300.0
20
200.0
11
0.0
21
200.0
0
LINE
8
WALLS
62
1
10
0.0
20
200.0
11
0.0
21
0.0
0
LINE
8
INTERIOR
62
3
10
120.0
20
0.0
11
120.0
21
200.0
0
CIRCLE
8
DOORS
62
2
10
120.0
20
40.0
40
30.0
0
ARC
8
DOORS
62
2
10
120.0
20
40.0
40
30.0
50
0.0
51
90.0
0
TEXT
8
ANNOTATIONS
62
4
10
30.0
20
100.0
40
14.0
1
EXECUTIVE SUITE 101
0
TEXT
8
ANNOTATIONS
62
4
10
160.0
20
100.0
40
14.0
1
CONFERENCE ROOM 102
0
ENDSEC
0
EOF